<svg id="Layer_1" data-name="Layer 1" xmlns="http://www.w3.org/2000/svg" viewBox="0 0 805.86 138.91"><defs><style>.cls-1{fill:#95bf47;}.cls-2{fill:#5e8e3e;}.cls-3{fill:#fff;}</style></defs><path class="cls-1" d="M107.4,27.1a1.27,1.27,0,0,0-1.2-1.1l-10.4-.2s-8.3-8-9.1-8.9-2.4-.6-3-.4l-4.2,1.3a29.82,29.82,0,0,0-2-4.9C74.6,7.3,70.2,4.3,65,4.3h0a4.1,4.1,0,0,0-1.1.1c-.2-.2-.3-.4-.5-.5A11.11,11.11,0,0,0,54.7.4C48,.6,41.3,5.5,35.8,14.1a56.36,56.36,0,0,0-7.6,19.6c-7.7,2.4-13.1,4.1-13.3,4.1-3.9,1.2-4,1.3-4.5,5C10.2,45.6,0,124.5,0,124.5l85.6,14.8,37.1-9.2C122.6,130.1,107.5,27.8,107.4,27.1ZM75.2,19.2q-3,.9-6.6,2.1a37,37,0,0,0-2-12.2C71.7,9.9,74.2,15.7,75.2,19.2ZM64.1,22.6C59.6,24,54.7,25.5,49.8,27A34.49,34.49,0,0,1,57,13a14.54,14.54,0,0,1,4.8-3.5C63.8,13.4,64.2,18.9,64.1,22.6ZM54.9,4.9a6.5,6.5,0,0,1,4,1.1,17.72,17.72,0,0,0-5.2,4.1c-4.3,4.6-7.6,11.7-8.9,18.6-4.1,1.3-8.1,2.5-11.7,3.6C35.5,21.4,44.6,5.2,54.9,4.9Z" transform="translate(0 -0.39)"/><path class="cls-2" d="M106.2,26l-10.4-.2s-8.3-8-9.1-8.9a1.61,1.61,0,0,0-1.1-.5V139.3l37.1-9.2s-15.1-102.3-15.2-103A1.45,1.45,0,0,0,106.2,26Z" transform="translate(0 -0.39)"/><path class="cls-3" d="M65,45.1,60.7,61.2a24,24,0,0,0-10.5-1.8c-8.4.5-8.4,5.8-8.4,7.1.5,7.2,19.4,8.8,20.5,25.7.8,13.3-7,22.4-18.4,23.1-13.6.7-21.1-7.3-21.1-7.3l2.9-12.3s7.6,5.7,13.6,5.3a5.31,5.31,0,0,0,5.2-5.7c-.6-9.4-16-8.8-17-24.3C26.7,58,35.2,44.9,54,43.7,61.3,43.2,65,45.1,65,45.1Z" transform="translate(0 -0.39)"/><path d="M147.5,98.55c3.2,1.6,9.23,3.91,14.67,3.89,4.67,0,7.09-2.3,7.09-5.11s-1.81-4.66-7-7.21c-6.48-3.19-11.9-8-11.9-14.94,0-11.66,10.25-19.39,24.73-19.39,6.56,0,11.69,1.35,14.45,2.9l-3.94,11.7a27.11,27.11,0,0,0-11.24-2.45c-4.39,0-7.31,1.9-7.31,4.94,0,2.34,2.29,4.25,6.84,6.46,6.13,3.12,12.59,7.56,12.59,15.37,0,12.88-10.94,19.84-25.84,19.84-7.1,0-13.85-2-17.16-4.4Z" transform="translate(0 -0.39)"/><path d="M184.91,136.12,195.78,78.8c1.25-6.68,2.59-16,3.28-21.75h14.83l-1,8.2h.22a22.68,22.68,0,0,1,18.05-9.46c12.17,0,18.12,9.81,18.12,21.34,0,19.54-13,37.48-32.6,37.48-4.53,0-8.49-1.11-10.44-2.34H206l-4.54,23.85Zm23.65-36.75A10.86,10.86,0,0,0,216.1,102c8.86,0,15.82-12.58,15.82-23.64,0-4.47-1.94-9.17-7.3-9.17-6.2,0-12,6.92-14,18Z" transform="translate(0 -0.39)"/><path d="M288.77,113.34c.13-3.28.44-7.13.73-11.14h-.27c-5.17,9.35-12.38,12.41-18.93,12.41-10.08,0-17-7.84-17-19.6,0-19,12.61-39.22,40.29-39.22a66.13,66.13,0,0,1,18.6,2.82L306.23,88a139.63,139.63,0,0,0-2.26,25.3Zm4.8-44.49a20.91,20.91,0,0,0-4.53-.48c-10.71,0-18.5,13.12-18.52,23.57,0,5.53,2.24,9.33,6.8,9.33,4.94,0,11.08-5.64,13.64-19.42Z" transform="translate(0 -0.39)"/><path d="M354.84,111.57c-3.59,1.73-9.26,3-16,3-13.88,0-23.68-8.51-23.68-23.11,0-20,15.3-35.61,36.71-35.61a32.33,32.33,0,0,1,11.42,1.91l-4.07,12.7a19.3,19.3,0,0,0-7.61-1.4c-11.79,0-19.11,10-19.11,20.57,0,7.81,4.9,11.68,11.05,11.68a27.33,27.33,0,0,0,11.13-2.35Z" transform="translate(0 -0.39)"/><path d="M405.21,110.11c-6.54,3.31-14.75,4.44-21,4.44-16.08,0-24.33-9.1-24.33-23.8,0-17.09,12.42-35,32.74-35,11.42,0,19.58,6.42,19.6,16.89,0,14.28-14,19.52-36.48,18.92a11.67,11.67,0,0,0,1.78,5.79c2.18,2.84,5.92,4.3,10.76,4.3A35.47,35.47,0,0,0,404,98.13ZM390.57,67.92c-7.68,0-12.14,6.37-13.24,11.57,12.85.13,19.33-1.65,19.33-6.8C396.66,69.88,394.32,67.92,390.57,67.92Z" transform="translate(0 -0.39)"/><path d="M415.59,98.55c3.2,1.6,9.23,3.91,14.66,3.89,4.67,0,7.1-2.3,7.1-5.11s-1.82-4.66-7-7.21c-6.48-3.19-11.91-8-11.91-14.94,0-11.66,10.25-19.39,24.73-19.39,6.56,0,11.7,1.35,14.45,2.9l-3.94,11.7a27.07,27.07,0,0,0-11.24-2.45c-4.39,0-7.31,1.9-7.31,4.94,0,2.34,2.29,4.25,6.84,6.46,6.13,3.12,12.59,7.56,12.59,15.37,0,12.88-10.94,19.84-25.84,19.84-7.1,0-13.85-2-17.16-4.4Z" transform="translate(0 -0.39)"/><path d="M490.78,41.32l-2.93,15.73h12L497.4,69.68h-12L481.6,88.77a39.48,39.48,0,0,0-.94,7.13c0,2.75,1.2,4.72,4.8,4.72a34.5,34.5,0,0,0,4.55-.23l-1.9,13c-2.16.82-6.23,1.25-9.78,1.25-10,0-14.65-5.08-14.65-12.11a51.07,51.07,0,0,1,1.19-10.44l4.35-22.37H462l2.39-12.63h7.22l2.24-11.83Z" transform="translate(0 -0.39)"/><path d="M531.45,113.34c.13-3.28.44-7.13.73-11.14h-.27c-5.17,9.35-12.38,12.41-18.93,12.41-10.08,0-17-7.84-17-19.6,0-19,12.61-39.22,40.29-39.22a66.13,66.13,0,0,1,18.6,2.82L548.91,88a139.63,139.63,0,0,0-2.26,25.3Zm4.8-44.49a20.91,20.91,0,0,0-4.53-.48c-10.72,0-18.5,13.12-18.52,23.57,0,5.53,2.24,9.33,6.8,9.33,4.94,0,11.08-5.64,13.64-19.42Z" transform="translate(0 -0.39)"/><path d="M560,121.16c3.16,1.83,10,3.06,14.77,3.06,8.2,0,14.39-3.68,16.72-14.91l1-4.74h-.25c-4.38,5.67-9.45,8.32-16.09,8.32-11.2,0-18-9-18-20.06-.09-18.55,13.15-37,37.65-37a53.93,53.93,0,0,1,20.82,3.92l-8.47,46.37c-1.94,10.34-5.13,19.56-11.84,25-6.09,4.89-14.25,6.34-21.78,6.34s-14.48-1.4-18.3-3.6ZM598.63,69.5a16.65,16.65,0,0,0-6-1c-10,0-17.13,11.16-17.15,21.81,0,5.67,2.51,9.87,7.61,9.87,5.37,0,10.85-6.08,12.62-15.56Z" transform="translate(0 -0.39)"/><path d="M618.28,113.34l6.35-33.49c1.58-8.48,2.29-17.95,2.88-22.8h14.34c-.3,3.8-.6,7.6-1,11.54h.36c4-7.48,10.22-12.8,17.93-12.8,1,0,2.12,0,3.09.12L659,72.06c-.72-.06-1.64-.11-2.61-.11-10.54,0-15.51,9.41-17.58,20.48l-3.94,20.91Z" transform="translate(0 -0.39)"/><path d="M692.05,113.34c.13-3.28.44-7.13.74-11.14h-.28c-5.16,9.35-12.38,12.41-18.92,12.41-10.08,0-17-7.84-17-19.6,0-19,12.61-39.22,40.28-39.22a66.07,66.07,0,0,1,18.6,2.82L709.52,88a138.73,138.73,0,0,0-2.26,25.3Zm4.8-44.49a20.77,20.77,0,0,0-4.53-.48c-10.71,0-18.49,13.12-18.51,23.57,0,5.53,2.23,9.33,6.8,9.33,4.94,0,11.08-5.64,13.64-19.42Z" transform="translate(0 -0.39)"/><path d="M716.85,113.34l7-37.95c1.34-7.13,2.22-13.29,2.92-18.34H741l-1,9.18h.18c5.17-7.29,12-10.44,19.25-10.44,9,0,12.85,5.69,13.31,10.65,5.06-7.27,12.13-10.62,19.4-10.65,8.69,0,13.73,5.59,13.73,15.12a69.09,69.09,0,0,1-1,9.68l-6.11,32.75h-16l5.66-30.74a40.37,40.37,0,0,0,.77-6.83c0-3.93-1.7-6.68-5.57-6.68-5.51,0-11,7.42-13.12,18.77l-4.78,25.48H749.78l5.79-30.93a36.54,36.54,0,0,0,.75-6.42c0-3.85-1.24-6.9-5.34-6.9-5.58,0-11.46,7.86-13.47,18.93l-4.63,25.32Z" transform="translate(0 -0.39)"/></svg>